<svg width="203" height="50" viewBox="0 0 203 50" fill="none" xmlns="http://www.w3.org/2000/svg">
<path d="M41.5264 15.5644V28.0956C41.5264 31.4178 39.7003 34.4859 36.7372 36.1481L30.2649 39.775L32.487 46.8267C33.1219 48.8364 31.3973 50.6694 29.727 49.7598L15.9722 42.4126L13.7052 41.1429L13.3808 40.9616L12.537 40.4884L6.85547 37.3036L6.53111 37.1224L6.46415 37.0854L4.78925 36.1481C4.41179 35.9357 4.05279 35.7014 3.71343 35.4463C3.64648 35.3955 3.58068 35.3447 3.51488 35.2916C3.17436 35.0227 2.85577 34.7306 2.55911 34.4213C1.324 33.1296 0.484812 31.5147 0.155832 29.7659C0.140826 29.6851 0.126974 29.6043 0.114277 29.5235C0.0877278 29.3654 0.0669502 29.2049 0.0496355 29.0445C0.0173147 28.7317 0 28.4142 0 28.0956V15.5644C0 12.2412 1.82612 9.17184 4.78925 7.51193L15.9722 1.24517C18.9365 -0.41589 22.5899 -0.41589 25.5542 1.24517L36.7372 7.51193C39.7003 9.17184 41.5264 12.2412 41.5264 15.5644Z" fill="#4D3BFF"/>
<path d="M8.37685 19.3991C8.37685 20.5718 7.75929 21.7111 6.6627 22.3241L0 26.0352V18.3625L3.39599 16.4821C5.00857 15.5794 7.04824 16.1554 7.95091 17.7692C8.23949 18.2863 8.37685 18.8461 8.37685 19.3991Z" fill="white"/>
<path d="M17.781 25.3484C17.781 26.5212 17.1635 27.6593 16.0669 28.2723L3.51486 35.2916C3.17434 35.0227 2.85575 34.7306 2.55909 34.4213C1.32398 33.1296 0.484792 31.5147 0.155813 29.7659C0.140807 29.6851 0.126955 29.6043 0.114258 29.5235L12.799 22.4291C14.4127 21.5276 16.4524 22.1036 17.3539 23.7173C17.6437 24.2345 17.781 24.7955 17.781 25.3484Z" fill="#FFCB04"/>
<path d="M18.6018 36.4379C18.6018 37.6107 17.9842 38.75 16.8876 39.3629L13.7052 41.1429L13.3808 40.9616L12.537 40.4884L6.85547 37.3036L13.6209 33.5209C15.2335 32.6182 17.2731 33.1943 18.1758 34.808C18.4644 35.3251 18.6018 35.885 18.6018 36.4379Z" fill="#99CCFF"/>
<path d="M14.4034 17.5926C16.2522 17.5926 17.7509 16.0938 17.7509 14.245C17.7509 12.3963 16.2522 10.8975 14.4034 10.8975C12.5546 10.8975 11.0559 12.3963 11.0559 14.245C11.0559 16.0938 12.5546 17.5926 14.4034 17.5926Z" fill="white"/>
<path d="M24.6747 34.5587C26.5234 34.5587 28.0222 33.0599 28.0222 31.2111C28.0222 29.3624 26.5234 27.8636 24.6747 27.8636C22.8259 27.8636 21.3271 29.3624 21.3271 31.2111C21.3271 33.0599 22.8259 34.5587 24.6747 34.5587Z" fill="#99CCFF"/>
<path d="M23.9808 23.3641C25.8296 23.3641 27.3283 21.8654 27.3283 20.0166C27.3283 18.1678 25.8296 16.6691 23.9808 16.6691C22.132 16.6691 20.6333 18.1678 20.6333 20.0166C20.6333 21.8654 22.132 23.3641 23.9808 23.3641Z" fill="#FFCB04"/>
<path d="M50.32 30V14.6H55.985C56.821 14.6 57.5727 14.8053 58.24 15.216C58.9073 15.6267 59.4353 16.1803 59.824 16.877C60.22 17.5663 60.418 18.3363 60.418 19.187C60.418 19.9057 60.2823 20.562 60.011 21.156C59.747 21.75 59.373 22.256 58.889 22.674C58.4123 23.092 57.866 23.3927 57.25 23.576L60.968 30H58.317L54.709 23.785H52.608V30H50.32ZM52.608 21.497H55.743C56.183 21.497 56.5827 21.387 56.942 21.167C57.3087 20.947 57.5983 20.6537 57.811 20.287C58.0237 19.9203 58.13 19.506 58.13 19.044C58.13 18.582 58.0237 18.1677 57.811 17.801C57.5983 17.427 57.3087 17.1337 56.942 16.921C56.5827 16.701 56.183 16.591 55.743 16.591H52.608V21.497ZM66.9446 30.286C65.9326 30.286 65.0086 30.0257 64.1726 29.505C63.3439 28.9843 62.6803 28.2877 62.1816 27.415C61.6903 26.535 61.4446 25.5633 61.4446 24.5C61.4446 23.6933 61.5876 22.9417 61.8736 22.245C62.1596 21.541 62.5519 20.925 63.0506 20.397C63.5566 19.8617 64.1433 19.4437 64.8106 19.143C65.4779 18.8423 66.1893 18.692 66.9446 18.692C67.7879 18.692 68.5616 18.868 69.2656 19.22C69.9696 19.5647 70.5709 20.045 71.0696 20.661C71.5683 21.2697 71.9349 21.9737 72.1696 22.773C72.4043 23.565 72.4739 24.4083 72.3786 25.303H63.8976C63.9929 25.809 64.1763 26.2673 64.4476 26.678C64.7263 27.0813 65.0783 27.4003 65.5036 27.635C65.9363 27.8697 66.4166 27.9907 66.9446 27.998C67.5019 27.998 68.0079 27.8587 68.4626 27.58C68.9246 27.3013 69.3023 26.9163 69.5956 26.425L71.9166 26.964C71.4766 27.9393 70.8129 28.7387 69.9256 29.362C69.0383 29.978 68.0446 30.286 66.9446 30.286ZM63.8206 23.554H70.0686C69.9953 23.026 69.8083 22.5493 69.5076 22.124C69.2143 21.6913 68.8439 21.3503 68.3966 21.101C67.9566 20.8443 67.4726 20.716 66.9446 20.716C66.4239 20.716 65.9399 20.8407 65.4926 21.09C65.0526 21.3393 64.6859 21.6803 64.3926 22.113C64.1066 22.5383 63.9159 23.0187 63.8206 23.554ZM82.2968 19H84.5848V30H82.2858L82.1978 28.405C81.8752 28.9697 81.4388 29.4243 80.8888 29.769C80.3388 30.1137 79.6898 30.286 78.9418 30.286C78.1352 30.286 77.3762 30.1357 76.6648 29.835C75.9535 29.527 75.3265 29.1017 74.7838 28.559C74.2485 28.0163 73.8305 27.393 73.5298 26.689C73.2292 25.9777 73.0788 25.215 73.0788 24.401C73.0788 23.6163 73.2255 22.8793 73.5188 22.19C73.8122 21.4933 74.2192 20.8847 74.7398 20.364C75.2605 19.8433 75.8618 19.4363 76.5438 19.143C77.2332 18.8423 77.9702 18.692 78.7548 18.692C79.5542 18.692 80.2582 18.8753 80.8668 19.242C81.4828 19.6013 81.9925 20.0633 82.3958 20.628L82.2968 19ZM78.8868 28.075C79.5322 28.075 80.0968 27.9173 80.5808 27.602C81.0648 27.2793 81.4388 26.8467 81.7028 26.304C81.9742 25.7613 82.1098 25.16 82.1098 24.5C82.1098 23.8327 81.9742 23.2277 81.7028 22.685C81.4315 22.1423 81.0538 21.7133 80.5698 21.398C80.0932 21.0753 79.5322 20.914 78.8868 20.914C78.2488 20.914 77.6658 21.0753 77.1378 21.398C76.6098 21.7207 76.1918 22.1533 75.8838 22.696C75.5758 23.2387 75.4218 23.84 75.4218 24.5C75.4218 25.1673 75.5795 25.7723 75.8948 26.315C76.2175 26.8503 76.6392 27.2793 77.1598 27.602C77.6878 27.9173 78.2635 28.075 78.8868 28.075ZM93.308 26.876L95.354 27.987C94.8553 28.6837 94.221 29.241 93.451 29.659C92.6883 30.077 91.8597 30.286 90.965 30.286C89.953 30.286 89.029 30.0257 88.193 29.505C87.3643 28.9843 86.7007 28.2877 86.202 27.415C85.7107 26.535 85.465 25.5633 85.465 24.5C85.465 23.6933 85.608 22.9417 85.894 22.245C86.18 21.541 86.5723 20.925 87.071 20.397C87.577 19.8617 88.1637 19.4437 88.831 19.143C89.4983 18.8423 90.2097 18.692 90.965 18.692C91.8597 18.692 92.6883 18.901 93.451 19.319C94.221 19.737 94.8553 20.298 95.354 21.002L93.308 22.113C93 21.7463 92.6407 21.4677 92.23 21.277C91.8193 21.079 91.3977 20.98 90.965 20.98C90.3637 20.98 89.8173 21.145 89.326 21.475C88.842 21.7977 88.457 22.2267 88.171 22.762C87.8923 23.29 87.753 23.8693 87.753 24.5C87.753 25.1233 87.896 25.7027 88.182 26.238C88.468 26.766 88.853 27.1913 89.337 27.514C89.8283 27.8367 90.371 27.998 90.965 27.998C91.4197 27.998 91.8523 27.8953 92.263 27.69C92.6737 27.4847 93.022 27.2133 93.308 26.876ZM106.542 23.103V30H104.254V23.664C104.254 23.1727 104.133 22.7253 103.891 22.322C103.656 21.9187 103.337 21.5997 102.934 21.365C102.538 21.123 102.091 21.002 101.592 21.002C101.108 21.002 100.664 21.123 100.261 21.365C99.8577 21.5997 99.535 21.9187 99.293 22.322C99.051 22.7253 98.93 23.1727 98.93 23.664V30H96.642V13.5H98.93V20.166C99.3114 19.7113 99.7807 19.352 100.338 19.088C100.895 18.824 101.497 18.692 102.142 18.692C102.956 18.692 103.697 18.89 104.364 19.286C105.031 19.682 105.559 20.2137 105.948 20.881C106.344 21.5483 106.542 22.289 106.542 23.103ZM113.143 30L116.124 14.6H117.972L121.921 24.973L125.848 14.6H127.696L130.688 30H128.356L126.365 19.693L122.68 29.417H121.14L117.466 19.693L115.475 30H113.143ZM139.187 19H141.629L135.601 35.5H133.17L135.161 30L131.212 19H133.709L136.305 26.865L139.187 19ZM148.239 30V14.6H150.527V27.712H157.16V30H148.239ZM162.994 30.286C161.982 30.286 161.058 30.0257 160.222 29.505C159.394 28.9843 158.73 28.2877 158.231 27.415C157.74 26.535 157.494 25.5633 157.494 24.5C157.494 23.6933 157.637 22.9417 157.923 22.245C158.209 21.541 158.602 20.925 159.1 20.397C159.606 19.8617 160.193 19.4437 160.86 19.143C161.528 18.8423 162.239 18.692 162.994 18.692C163.838 18.692 164.611 18.868 165.315 19.22C166.019 19.5647 166.621 20.045 167.119 20.661C167.618 21.2697 167.985 21.9737 168.219 22.773C168.454 23.565 168.524 24.4083 168.428 25.303H159.947C160.043 25.809 160.226 26.2673 160.497 26.678C160.776 27.0813 161.128 27.4003 161.553 27.635C161.986 27.8697 162.466 27.9907 162.994 27.998C163.552 27.998 164.058 27.8587 164.512 27.58C164.974 27.3013 165.352 26.9163 165.645 26.425L167.966 26.964C167.526 27.9393 166.863 28.7387 165.975 29.362C165.088 29.978 164.094 30.286 162.994 30.286ZM159.87 23.554H166.118C166.045 23.026 165.858 22.5493 165.557 22.124C165.264 21.6913 164.894 21.3503 164.446 21.101C164.006 20.8443 163.522 20.716 162.994 20.716C162.474 20.716 161.99 20.8407 161.542 21.09C161.102 21.3393 160.736 21.6803 160.442 22.113C160.156 22.5383 159.966 23.0187 159.87 23.554ZM178.347 19H180.635V30H178.336L178.248 28.405C177.925 28.9697 177.489 29.4243 176.939 29.769C176.389 30.1137 175.74 30.286 174.992 30.286C174.185 30.286 173.426 30.1357 172.715 29.835C172.003 29.527 171.376 29.1017 170.834 28.559C170.298 28.0163 169.88 27.393 169.58 26.689C169.279 25.9777 169.129 25.215 169.129 24.401C169.129 23.6163 169.275 22.8793 169.569 22.19C169.862 21.4933 170.269 20.8847 170.79 20.364C171.31 19.8433 171.912 19.4363 172.594 19.143C173.283 18.8423 174.02 18.692 174.805 18.692C175.604 18.692 176.308 18.8753 176.917 19.242C177.533 19.6013 178.042 20.0633 178.446 20.628L178.347 19ZM174.937 28.075C175.582 28.075 176.147 27.9173 176.631 27.602C177.115 27.2793 177.489 26.8467 177.753 26.304C178.024 25.7613 178.16 25.16 178.16 24.5C178.16 23.8327 178.024 23.2277 177.753 22.685C177.481 22.1423 177.104 21.7133 176.62 21.398C176.143 21.0753 175.582 20.914 174.937 20.914C174.299 20.914 173.716 21.0753 173.188 21.398C172.66 21.7207 172.242 22.1533 171.934 22.696C171.626 23.2387 171.472 23.84 171.472 24.5C171.472 25.1673 171.629 25.7723 171.945 26.315C172.267 26.8503 172.689 27.2793 173.21 27.602C173.738 27.9173 174.313 28.075 174.937 28.075ZM190.744 13.5H193.032V30H190.744V28.383C190.384 28.955 189.915 29.417 189.336 29.769C188.756 30.1137 188.078 30.286 187.301 30.286C186.501 30.286 185.753 30.1357 185.057 29.835C184.36 29.5343 183.744 29.12 183.209 28.592C182.681 28.0567 182.266 27.4407 181.966 26.744C181.665 26.0473 181.515 25.2993 181.515 24.5C181.515 23.7007 181.665 22.9527 181.966 22.256C182.266 21.552 182.681 20.936 183.209 20.408C183.744 19.8727 184.36 19.4547 185.057 19.154C185.753 18.8533 186.501 18.703 187.301 18.703C188.078 18.703 188.756 18.879 189.336 19.231C189.915 19.5757 190.384 20.0303 190.744 20.595V13.5ZM187.323 28.075C187.968 28.075 188.533 27.9173 189.017 27.602C189.501 27.2793 189.875 26.8467 190.139 26.304C190.41 25.7613 190.546 25.16 190.546 24.5C190.546 23.8327 190.41 23.2277 190.139 22.685C189.867 22.1423 189.49 21.7133 189.006 21.398C188.529 21.0753 187.968 20.914 187.323 20.914C186.685 20.914 186.102 21.0753 185.574 21.398C185.053 21.7207 184.635 22.1533 184.32 22.696C184.012 23.2387 183.858 23.84 183.858 24.5C183.858 25.1673 184.015 25.7723 184.331 26.315C184.653 26.8503 185.075 27.2793 185.596 27.602C186.124 27.9173 186.699 28.075 187.323 28.075ZM198.527 30.209C197.948 30.1723 197.383 30.055 196.833 29.857C196.283 29.659 195.799 29.3913 195.381 29.054C194.97 28.7093 194.662 28.306 194.457 27.844L196.404 27.008C196.499 27.206 196.664 27.4003 196.899 27.591C197.141 27.7817 197.423 27.9393 197.746 28.064C198.069 28.1813 198.406 28.24 198.758 28.24C199.103 28.24 199.422 28.1923 199.715 28.097C200.016 27.9943 200.261 27.8403 200.452 27.635C200.643 27.4297 200.738 27.184 200.738 26.898C200.738 26.5753 200.628 26.326 200.408 26.15C200.195 25.9667 199.928 25.8273 199.605 25.732C199.282 25.6367 198.96 25.545 198.637 25.457C197.918 25.2957 197.258 25.0757 196.657 24.797C196.063 24.511 195.59 24.148 195.238 23.708C194.886 23.2607 194.71 22.7143 194.71 22.069C194.71 21.365 194.901 20.7563 195.282 20.243C195.663 19.7223 196.162 19.3227 196.778 19.044C197.401 18.7653 198.065 18.626 198.769 18.626C199.649 18.626 200.456 18.813 201.189 19.187C201.922 19.561 202.483 20.0743 202.872 20.727L201.057 21.805C200.947 21.585 200.782 21.387 200.562 21.211C200.342 21.035 200.093 20.8957 199.814 20.793C199.535 20.683 199.246 20.6207 198.945 20.606C198.571 20.5913 198.223 20.6353 197.9 20.738C197.585 20.8333 197.332 20.9873 197.141 21.2C196.95 21.4127 196.855 21.684 196.855 22.014C196.855 22.3367 196.969 22.5787 197.196 22.74C197.423 22.894 197.709 23.0187 198.054 23.114C198.406 23.2093 198.765 23.3157 199.132 23.433C199.785 23.6383 200.397 23.8913 200.969 24.192C201.541 24.4853 202.003 24.8483 202.355 25.281C202.707 25.7137 202.876 26.2417 202.861 26.865C202.861 27.5543 202.652 28.1593 202.234 28.68C201.823 29.2007 201.288 29.5967 200.628 29.868C199.968 30.1393 199.268 30.253 198.527 30.209Z" fill="#1B1A35"/>
</svg>
